<svg width="22" height="27" viewBox="0 0 22 27" fill="none" xmlns="http://www.w3.org/2000/svg">
<g filter="url(#filter0_ii_19630_33701)">
<path d="M15.1328 0.000610352L21.7988 6.66663V24.5338C21.7988 25.712 20.8442 26.6675 19.666 26.6676H2.33301C1.1548 26.6676 0.199219 25.712 0.199219 24.5338V2.1344C0.199219 0.956192 1.1548 0.000610352 2.33301 0.000610352H15.1328Z" fill="#576A95"/>
</g>
<g filter="url(#filter1_dd_19630_33701)">
<path d="M12.8327 16.6536V20.2749C12.8326 20.3938 12.8091 20.5116 12.7635 20.6215C12.7179 20.7313 12.6511 20.8311 12.5668 20.9151C12.3966 21.0849 12.166 21.1803 11.9255 21.1802H10.0732C9.83275 21.1803 9.60212 21.085 9.43185 20.9152C9.34758 20.8312 9.28073 20.7314 9.23511 20.6215C9.18949 20.5116 9.16601 20.3937 9.16602 20.2747V16.6536H12.8327V16.6536ZM11.9255 18.7282H10.0732V20.5466H11.9255V18.7282ZM12.8023 13.0322V14.8506H10.9805V13.0322H12.8023V13.0322ZM11.0032 0.266724V2.10006H12.8327V3.93339H11.003V5.63089H12.8327V7.46422H11.0032V9.27506H12.8327V11.0859H11.0032V12.8966H9.16602V11.0857H10.9955V9.27489H9.16602V7.46422H10.9955V5.63089H9.16602V3.79756H10.9955V2.10006H9.16602V0.266724H11.0032Z" fill="white"/>
</g>
<path d="M21.174 6.04163L15.7578 6.04163L21.7995 12.0833L21.7995 6.66663L21.174 6.04163Z" fill="url(#paint0_linear_19630_33701)"/>
<path d="M17.2674 6.66663L21.8008 6.66663L15.1341 -4.06371e-05L15.1341 4.53329C15.1341 5.7115 16.0892 6.66663 17.2674 6.66663Z" fill="#BBC3D4"/>
<defs>
<filter id="filter0_ii_19630_33701" x="0.199219" y="-0.132723" width="21.5996" height="26.9337" filterUnits="userSpaceOnUse" color-interpolation-filters="sRGB">
<feFlood flood-opacity="0" result="BackgroundImageFix"/>
<feBlend mode="normal" in="SourceGraphic" in2="BackgroundImageFix" result="shape"/>
<feColorMatrix in="SourceAlpha" type="matrix" values="0 0 0 0 0 0 0 0 0 0 0 0 0 0 0 0 0 0 127 0" result="hardAlpha"/>
<feOffset dy="-0.266667"/>
<feGaussianBlur stdDeviation="0.0666667"/>
<feComposite in2="hardAlpha" operator="arithmetic" k2="-1" k3="1"/>
<feColorMatrix type="matrix" values="0 0 0 0 0 0 0 0 0 0 0 0 0 0 0 0 0 0 0.3 0"/>
<feBlend mode="normal" in2="shape" result="effect1_innerShadow_19630_33701"/>
<feColorMatrix in="SourceAlpha" type="matrix" values="0 0 0 0 0 0 0 0 0 0 0 0 0 0 0 0 0 0 127 0" result="hardAlpha"/>
<feOffset dy="0.266667"/>
<feGaussianBlur stdDeviation="0.0666667"/>
<feComposite in2="hardAlpha" operator="arithmetic" k2="-1" k3="1"/>
<feColorMatrix type="matrix" values="0 0 0 0 1 0 0 0 0 1 0 0 0 0 1 0 0 0 0.3 0"/>
<feBlend mode="normal" in2="effect1_innerShadow_19630_33701" result="effect2_innerShadow_19630_33701"/>
</filter>
<filter id="filter1_dd_19630_33701" x="9.03268" y="0.13339" width="4.86699" height="22.3801" filterUnits="userSpaceOnUse" color-interpolation-filters="sRGB">
<feFlood flood-opacity="0" result="BackgroundImageFix"/>
<feColorMatrix in="SourceAlpha" type="matrix" values="0 0 0 0 0 0 0 0 0 0 0 0 0 0 0 0 0 0 127 0" result="hardAlpha"/>
<feOffset dx="0.533333" dy="0.8"/>
<feGaussianBlur stdDeviation="0.266667"/>
<feColorMatrix type="matrix" values="0 0 0 0 0 0 0 0 0 0 0 0 0 0 0 0 0 0 0.1 0"/>
<feBlend mode="normal" in2="BackgroundImageFix" result="effect1_dropShadow_19630_33701"/>
<feColorMatrix in="SourceAlpha" type="matrix" values="0 0 0 0 0 0 0 0 0 0 0 0 0 0 0 0 0 0 127 0" result="hardAlpha"/>
<feOffset/>
<feGaussianBlur stdDeviation="0.0666667"/>
<feColorMatrix type="matrix" values="0 0 0 0 0 0 0 0 0 0 0 0 0 0 0 0 0 0 0.4 0"/>
<feBlend mode="normal" in2="effect1_dropShadow_19630_33701" result="effect2_dropShadow_19630_33701"/>
<feBlend mode="normal" in="SourceGraphic" in2="effect2_dropShadow_19630_33701" result="shape"/>
</filter>
<linearGradient id="paint0_linear_19630_33701" x1="17.112" y1="4.68746" x2="23.1536" y2="10.7291" gradientUnits="userSpaceOnUse">
<stop stop-opacity="0.2"/>
<stop offset="1" stop-opacity="0"/>
</linearGradient>
</defs>
</svg>
